<?xml version="1.0" encoding="utf-8"?>
<!-- Generator: Adobe Illustrator 16.0.0, SVG Export Plug-In . SVG Version: 6.00 Build 0)  -->
<!DOCTYPE svg PUBLIC "-//W3C//DTD SVG 1.1//EN" "http://www.w3.org/Graphics/SVG/1.1/DTD/svg11.dtd">
<svg version="1.1" xmlns="http://www.w3.org/2000/svg" xmlns:xlink="http://www.w3.org/1999/xlink" x="0px" y="0px"
	 width="55.955px" height="211.958px" viewBox="0 0 55.955 211.958" enable-background="new 0 0 55.955 211.958"
	 xml:space="preserve">
<g id="圖層_1">
	<path fill="#3ED2DD" d="M53.396,182.268l-0.856-0.857c-1.655-1.655-5.14-0.854-7.785,1.791l-16.802,16.803l-16.587-16.586
		c-2.749-2.75-6.271-3.687-7.865-2.092l-0.823,0.825c-1.594,1.594-0.659,5.115,2.091,7.864l19.198,19.2
		c2.751,2.75,5.343,2.757,6.937,1.163l0.276-0.276c0.648-0.404,1.309-0.932,1.962-1.585l18.465-18.464
		C54.25,187.408,55.05,183.923,53.396,182.268z"/>
	<path fill="#3ED2DD" d="M32.454,206.833c0,2.485-2.015,4.5-4.5,4.5l0,0c-2.485,0-4.5-2.015-4.5-4.5v-200c0-2.485,2.015-4.5,4.5-4.5
		l0,0c2.485,0,4.5,2.015,4.5,4.5V206.833z"/>
</g>
<g id="網頁設計1" display="none">
</g>
<g id="網頁設計_x5F_深">
</g>
<g id="配色" display="none">
</g>
<g id="Logo" display="none">
</g>
<g id="吉祥物設計" display="none">
</g>
</svg>
