<?xml version="1.0" encoding="utf-8"?>
<!-- Generator: Adobe Illustrator 16.0.0, SVG Export Plug-In . SVG Version: 6.00 Build 0)  -->
<!DOCTYPE svg PUBLIC "-//W3C//DTD SVG 1.1//EN" "http://www.w3.org/Graphics/SVG/1.1/DTD/svg11.dtd">
<svg version="1.1" xmlns="http://www.w3.org/2000/svg" xmlns:xlink="http://www.w3.org/1999/xlink" x="0px" y="0px"
	 width="237.981px" height="240.289px" viewBox="0 0 237.981 240.289" enable-background="new 0 0 237.981 240.289"
	 xml:space="preserve">
<g id="圖層_1">
	<g>
		<path fill="none" stroke="#76E2E5" stroke-width="0.5" stroke-miterlimit="10" d="M87.571,97.521
			c2.705,1.711,6.395,2.566,9.1,3.422c11.313,3.136,22.627,5.987,34.186,8.839c13.525,3.421,27.053,4.847,40.826,7.413"/>
		<path fill="none" stroke="#76E2E5" stroke-width="0.5" stroke-miterlimit="10" d="M97.847,109.105
			c2.387,1.477,5.631,2.193,8.01,2.92c9.947,2.649,19.891,5.05,30.051,7.447c11.889,2.88,23.762,4.011,35.859,6.139"/>
		<path fill="none" stroke="#76E2E5" stroke-width="0.5" stroke-miterlimit="10" d="M97.614,119.229
			c2.43,1.403,5.693,2.021,8.094,2.676c10.021,2.347,20.035,4.444,30.262,6.533c11.973,2.519,23.873,3.288,36.031,5.049"/>
		<path fill="none" stroke="#76E2E5" stroke-width="0.5" stroke-miterlimit="10" d="M97.415,129.366
			c2.471,1.328,5.752,1.847,8.17,2.427c10.09,2.041,20.162,3.833,30.449,5.608c12.043,2.153,23.961,2.561,36.166,3.949"/>
		<path fill="none" stroke="#76E2E5" stroke-width="0.5" stroke-miterlimit="10" d="M97.358,138.727
			c2.484,1.305,5.77,1.792,8.193,2.349c10.109,1.943,20.197,3.637,30.502,5.313c12.063,2.036,23.984,2.328,36.203,3.6"/>
		<path fill="none" stroke="#76E2E5" stroke-width="0.5" stroke-miterlimit="10" d="M97.329,150.925
			c2.492,1.292,5.779,1.762,8.207,2.306c10.117,1.89,20.215,3.529,30.527,5.151c12.074,1.973,23.998,2.201,36.223,3.408"/>
		<path fill="none" stroke="#76E2E5" stroke-width="0.5" stroke-miterlimit="10" d="M95.153,163.325
			c2.537,1.197,5.84,1.545,8.285,1.998c10.184,1.512,20.334,2.774,30.699,4.012c12.139,1.521,24.064,1.306,36.324,2.057"/>
		<path fill="none" stroke="#76E2E5" stroke-width="0.5" stroke-miterlimit="10" d="M20.153,158.325
			c2.537,1.197,5.84,1.545,8.285,1.998c10.184,1.512,20.334,2.774,30.699,4.012c12.139,1.521,24.064,1.306,36.324,2.057"/>
		<path fill="none" stroke="#76E2E5" stroke-width="0.5" stroke-miterlimit="10" d="M156.925,179.763
			c2.373,1.498,5.609,2.246,7.982,2.994c9.922,2.741,36.248,8.223,46.387,10.715"/>
		<path fill="none" stroke="#76E2E5" stroke-width="0.5" stroke-miterlimit="10" d="M42.009,31.042
			c9.92,2.75,12.742,2.94,22.877,5.44c11.859,3,23.721,4.25,35.797,6.5"/>
		<path fill="none" stroke="#76E2E5" stroke-width="0.5" stroke-miterlimit="10" d="M172.933,115.733c2.371,1.5,5.607,2.25,7.979,3
			c9.92,2.75,19.84,5.25,29.975,7.75c11.859,3,13.197,2.5,25.273,4.75"/>
		<path fill="none" stroke="#76E2E5" stroke-width="0.5" stroke-miterlimit="10" d="M174.933,105.733c2.371,1.5,5.607,2.25,7.979,3
			c9.92,2.75,19.818,5.34,29.975,7.75c5.268,1.25,11.645,2,23.721,4.25"/>
		<path fill="none" stroke="#76E2E5" stroke-width="0.5" stroke-miterlimit="10" d="M174.933,89.733c2.371,1.5,5.607,2.25,7.979,3
			c9.92,2.75,43.561,12,53.695,14.5"/>
		<path fill="none" stroke="#76E2E5" stroke-width="0.5" stroke-miterlimit="10" d="M174.933,78.733c2.371,1.5,5.607,2.25,7.979,3
			c9.92,2.75,41.107,8.007,51.242,10.507"/>
		<path fill="none" stroke="#76E2E5" stroke-width="0.5" stroke-miterlimit="10" d="M177.933,68.733c2.371,1.5,5.607,2.25,7.979,3
			c9.92,2.75,35.998,9.875,46.133,12.375"/>
		<path fill="none" stroke="#76E2E5" stroke-width="0.5" stroke-miterlimit="10" d="M177.933,56.733c2.371,1.5,5.607,2.25,7.979,3
			c9.92,2.75,31.211,8.75,41.346,11.25"/>
		<path fill="none" stroke="#76E2E5" stroke-width="0.5" stroke-miterlimit="10" d="M177.933,47.733c1.549,1.5,3.492,2.898,5.209,3
			c8.457,0.5,13.883,2.625,19.791,4c8.088,1.883,10.363,3.504,18.246,5.754"/>
		<path fill="none" stroke="#76E2E5" stroke-width="0.5" stroke-miterlimit="10" d="M32.854,38.295
			c2.387,1.477,9.568,2.652,11.949,3.379c9.945,2.649,9.943,2.4,20.104,4.798c11.889,2.88,23.762,4.011,35.859,6.139"/>
		<path fill="none" stroke="#76E2E5" stroke-width="0.5" stroke-miterlimit="10" d="M26.614,46.229
			c2.43,1.403,5.693,2.021,8.094,2.676c10.021,2.347,20.035,4.444,30.262,6.533c11.973,2.519,23.873,3.288,36.031,5.049"/>
		<path fill="none" stroke="#76E2E5" stroke-width="0.5" stroke-miterlimit="10" d="M26.415,56.366
			c2.471,1.328,5.752,1.847,8.17,2.427c10.09,2.041,20.162,3.833,30.449,5.608c12.043,2.153,23.961,2.561,36.166,3.949"/>
		<path fill="none" stroke="#76E2E5" stroke-width="0.5" stroke-miterlimit="10" d="M26.358,65.727
			c2.484,1.305,5.77,1.792,8.193,2.349c10.109,1.943,20.197,3.637,30.502,5.313c12.063,2.036,23.984,2.328,36.203,3.6"/>
		<path fill="none" stroke="#76E2E5" stroke-width="0.5" stroke-miterlimit="10" d="M24.329,76.925
			c2.492,1.292,5.779,1.762,8.207,2.306c10.117,1.89,20.215,3.529,30.527,5.151c12.074,1.973,23.998,2.201,36.223,3.408"/>
		<path fill="none" stroke="#76E2E5" stroke-width="0.5" stroke-miterlimit="10" d="M3.626,91.807
			c2.834,1.153,5.848,1.189,8.59,1.602c11.422,1.346,22.813,2.442,34.445,3.512c13.623,1.323,27.029,0.917,40.801,1.471"/>
		<path fill="none" stroke="#76E2E5" stroke-width="0.5" stroke-miterlimit="10" d="M106.183,33.233c0.5,21.667-4.5,43.656-6.75,65"
			/>
		<path fill="none" stroke="#76E2E5" stroke-width="0.5" stroke-miterlimit="10" d="M97.798,103.075
			c2.082,21.572-1.297,43.868-1.98,65.319"/>
		<path fill="none" stroke="#76E2E5" stroke-width="0.5" stroke-miterlimit="10" d="M117.183,36.233c0.5,21.667-4.5,43.656-6.75,65"
			/>
		<path fill="none" stroke="#76E2E5" stroke-width="0.5" stroke-miterlimit="10" d="M131.183,40.233c0.5,21.667-4.5,43.656-6.75,65"
			/>
		<path fill="none" stroke="#76E2E5" stroke-width="0.5" stroke-miterlimit="10" d="M143.183,44.233c0.5,21.667-4.5,43.656-6.75,65"
			/>
		<path fill="none" stroke="#76E2E5" stroke-width="0.5" stroke-miterlimit="10" d="M154.183,46.233c0.5,21.667-4.5,43.656-6.75,65"
			/>
		<path fill="none" stroke="#76E2E5" stroke-width="0.5" stroke-miterlimit="10" d="M167.183,48.233c0.5,21.667-4.5,43.656-6.75,65"
			/>
		<path fill="none" stroke="#76E2E5" stroke-width="0.5" stroke-miterlimit="10" d="M178.183,49.233c0.5,21.667-4.5,43.656-6.75,65"
			/>
		<path fill="none" stroke="#76E2E5" stroke-width="0.5" stroke-miterlimit="10" d="M25.769,91.807
			c1.469,21.623-0.785,44.246-2.076,65.67"/>
		<path fill="none" stroke="#76E2E5" stroke-width="0.5" stroke-miterlimit="10" d="M41.69,95.609
			c1.469,21.623-2.541,43.813-3.832,65.237"/>
		<path fill="none" stroke="#76E2E5" stroke-width="0.5" stroke-miterlimit="10" d="M53.856,97.067
			c1.471,21.623-2.539,43.814-3.832,65.237"/>
		<path fill="none" stroke="#76E2E5" stroke-width="0.5" stroke-miterlimit="10" d="M64.935,98.573
			c1.471,21.623-2.539,43.814-3.832,65.237"/>
		<path fill="none" stroke="#76E2E5" stroke-width="0.5" stroke-miterlimit="10" d="M78.013,99.989
			c1.469,21.623-2.541,43.813-3.834,65.236"/>
		<path fill="none" stroke="#76E2E5" stroke-width="0.5" stroke-miterlimit="10" d="M86.497,88.262
			c1.652,25.701-2.172,52.03-3.283,77.47"/>
		<path fill="none" stroke="#76E2E5" stroke-width="0.5" stroke-miterlimit="10" d="M96.524,164.24
			c1.471,21.623-2.541,46.691-3.832,68.115"/>
		<path fill="none" stroke="#76E2E5" stroke-width="0.5" stroke-miterlimit="10" d="M110.69,167.609
			c1.469,21.623-2.541,47.271-3.832,68.695"/>
		<path fill="none" stroke="#76E2E5" stroke-width="0.5" stroke-miterlimit="10" d="M122.856,171.067
			c1.471,21.623-2.682,45.874-3.975,67.297"/>
		<path fill="none" stroke="#76E2E5" stroke-width="0.5" stroke-miterlimit="10" d="M129.626,239.675
			c1.293-21.423,5.779-45.479,4.309-67.103"/>
		<path fill="none" stroke="#76E2E5" stroke-width="0.5" stroke-miterlimit="10" d="M147.013,173.989
			c1.469,21.623-2.541,43.813-3.834,65.236"/>
		<path fill="none" stroke="#76E2E5" stroke-width="0.5" stroke-miterlimit="10" d="M156.046,174.495
			c1.441,20.979-2.6,42.517-3.92,63.306"/>
		<path fill="none" stroke="#76E2E5" stroke-width="0.5" stroke-miterlimit="10" d="M174.524,117.24
			c1.471,21.623-2.541,43.813-3.832,65.237"/>
		<path fill="none" stroke="#76E2E5" stroke-width="0.5" stroke-miterlimit="10" d="M188.69,120.609
			c1.469,21.623-2.541,43.813-3.832,65.237"/>
		<path fill="none" stroke="#76E2E5" stroke-width="0.5" stroke-miterlimit="10" d="M200.856,124.067
			c1.471,21.623-2.539,43.814-3.832,65.237"/>
		<path fill="none" stroke="#76E2E5" stroke-width="0.5" stroke-miterlimit="10" d="M211.935,126.573
			c1.471,21.623-2.539,43.814-3.832,65.237"/>
		<path fill="none" stroke="#76E2E5" stroke-width="0.5" stroke-miterlimit="10" d="M225.013,129.989
			c1.469,21.623-1.758,32.369-3.834,46.549"/>
		<path fill="none" stroke="#76E2E5" stroke-width="0.5" stroke-miterlimit="10" d="M157.933,195.733c12,7,31.893,7,44.893,9"/>
		<path fill="none" stroke="#76E2E5" stroke-width="0.5" stroke-miterlimit="10" d="M154.933,208.233
			c7.5,3.5,26.076,9.622,34.076,10.622"/>
		<path fill="none" stroke="#76E2E5" stroke-width="0.5" stroke-miterlimit="10" d="M155.433,220.233c5,2,20.182,7.77,25.182,7.27"
			/>
		<path fill="none" stroke="#76E2E5" stroke-width="0.5" stroke-miterlimit="10" d="M13.917,166.391
			c26,0.5,56.516,8.842,82.516,8.842"/>
		<path fill="none" stroke="#76E2E5" stroke-width="0.5" stroke-miterlimit="10" d="M16.917,174.391c26,0.5,52.9,8.842,78.9,8.842"
			/>
		<path fill="none" stroke="#76E2E5" stroke-width="0.5" stroke-miterlimit="10" d="M22.731,183.233c26,0.5,47.086,8,73.086,8"/>
		<path fill="none" stroke="#76E2E5" stroke-width="0.5" stroke-miterlimit="10" d="M28.562,191.81
			c25.615,2.545,40.207,7.298,66.207,7.298"/>
		<path fill="none" stroke="#76E2E5" stroke-width="0.5" stroke-miterlimit="10" d="M39.274,204.483
			c12.826,2.124,28.873,7.75,54.873,7.75"/>
		<path fill="none" stroke="#76E2E5" stroke-width="0.5" stroke-miterlimit="10" d="M34.37,199.108
			c17.73,1.43,34.398,6.904,60.398,6.904"/>
		<path fill="none" stroke="#76E2E5" stroke-width="0.5" stroke-miterlimit="10" d="M74.179,211.072
			c5,8.5,9.514,16.405,18.514,18.405"/>
		<path fill="none" stroke="#76E2E5" stroke-width="0.5" stroke-miterlimit="10" d="M58.933,208.233
			c5,7.7,14.346,19.433,23.346,21.244"/>
		<path fill="none" stroke="#76E2E5" stroke-width="0.5" stroke-miterlimit="10" d="M2.433,98.233c7,7.5,14.236,11,23.236,16"/>
		<path fill="none" stroke="#76E2E5" stroke-width="0.5" stroke-miterlimit="10" d="M0.159,114.233c7,6,17.01,12.953,25.51,15.453"
			/>
		<path fill="none" stroke="#76E2E5" stroke-width="0.5" stroke-miterlimit="10" d="M1.276,130.255c5,5,16.553,9.978,23.053,11.978"
			/>
		<path fill="none" stroke="#76E2E5" stroke-width="0.5" stroke-miterlimit="10" d="M7.396,150.925
			c5.408,3.856,7.006,6.214,13.506,7.714"/>
		<path fill="none" stroke="#76E2E5" stroke-width="0.5" stroke-miterlimit="10" d="M23.933,51.233c0,13,2.5,27,1.5,39.5"/>
		<path fill="none" stroke="#76E2E5" stroke-width="0.5" stroke-miterlimit="10" d="M12.933,66.733c0,7-0.5,18.074,0.5,25.074"/>
		<path fill="none" stroke="#76E2E5" stroke-width="0.5" stroke-miterlimit="10" d="M107.933,32.233c22.5,3.5,44,9.5,66,14"/>
		<path fill="none" stroke="#76E2E5" stroke-width="0.5" stroke-miterlimit="10" d="M73.433,10.233c-7.5,4.5-13,13-17,21"/>
		<path fill="none" stroke="#76E2E5" stroke-width="0.5" stroke-miterlimit="10" d="M56.433,32.233c0,0.5,0,1-0.5,1.5"/>
		<path fill="none" stroke="#76E2E5" stroke-width="0.5" stroke-miterlimit="10" d="M98.433,3.233c-8.5,5-22.5,24.5-23.5,34.5"/>
		<path fill="none" stroke="#76E2E5" stroke-width="0.5" stroke-miterlimit="10" d="M91.433,40.733c3.5-15,18.5-27.5,26-40"/>
		<path fill="none" stroke="#76E2E5" stroke-width="0.5" stroke-miterlimit="10" d="M135.433,1.733c-10,10-17,22-26,31.5"/>
		<path fill="none" stroke="#76E2E5" stroke-width="0.5" stroke-miterlimit="10" d="M184.433,20.233c1.5,10,4.5,20,4.5,30"/>
		<path fill="none" stroke="#76E2E5" stroke-width="0.5" stroke-miterlimit="10" d="M195.933,29.233c4,8,8.5,16.5,9,25.5"/>
		<path fill="none" stroke="#76E2E5" stroke-width="0.5" stroke-miterlimit="10" d="M212.433,45.733c1,4,1.5,8.5,3,12.5"/>
		<path fill="none" stroke="#76E2E5" stroke-width="0.5" stroke-miterlimit="10" d="M117.933,26.233c21.5,0,48,4,68.5,12.5"/>
		<path fill="none" stroke="#76E2E5" stroke-width="0.5" stroke-miterlimit="10" d="M123.433,16.733c13.5,0,27.5,2.5,40.5,6
			c7,1.5,13.5,5.5,20.5,6.5"/>
		<path fill="none" stroke="#76E2E5" stroke-width="0.5" stroke-miterlimit="10" d="M131.933,7.733c19,0,35,4.5,52,11.5"/>
		<path fill="none" stroke="#76E2E5" stroke-width="0.5" stroke-miterlimit="10" d="M104.319,1.318
			C93.126,3.026,82.028,5.879,71.487,9.992c-2.635,1.028-5.234,2.135-7.793,3.327c-3.094,1.552-6.084,3.284-8.975,5.174
			c-2.889,1.889-5.678,3.935-8.371,6.112c-4.484,4.226-8.951,8.606-13.238,13.168c-2.145,2.28-4.244,4.606-6.279,6.985
			c-5.969,6.893-10.869,14.597-14.775,22.813c-1.301,2.743-2.494,5.543-3.572,8.417c-3.166,8.624-5.65,17.72-7.131,26.984
			c-0.494,3.088-0.875,6.194-1.133,9.309c-0.129,3.045-0.096,6.065,0.086,9.062s0.512,5.967,0.971,8.913
			c0.766,3.147,1.586,6.291,2.479,9.419c2.045,7.015,4.453,13.9,7.248,20.595c1.398,3.347,2.893,6.646,4.486,9.893
			c4.537,9.306,10.162,18.318,16.807,26.474c2.213,2.718,4.541,5.341,6.979,7.848c12.994,13.95,29.713,21.33,47.283,26.252
			c2.93,0.821,5.887,1.576,8.869,2.289c28.355,8.738,62.781,11.231,87.793-7.357c2.779-2.067,5.441-4.402,7.975-7.087
			c2.217-2.605,4.453-5.229,6.684-7.881c2.229-2.651,4.451-5.33,6.637-8.046c10.209-12.96,18.813-27.439,24.777-42.98
			c1.193-3.108,2.279-6.259,3.254-9.448c7.387-29.491,8.387-62.491-8.467-88.732c-1.697-2.87-3.576-5.832-5.646-8.881
			c-1.438-2.117-2.891-4.157-4.355-6.122c-1.463-1.964-2.939-3.854-4.42-5.67c-10.863-13.543-24.293-24.314-39.367-31.65
			c-3.014-1.467-6.096-2.797-9.234-3.984c-10.082-4.301-20.998-5.29-31.838-5.298c-2.711-0.002-5.416,0.059-8.102,0.147
			c-2.676,0.116-5.322,0.294-7.926,0.49C109.89,0.703,106.866,0.959,104.319,1.318z"/>
	</g>
</g>
<g id="網頁設計1" display="none">
</g>
<g id="網頁設計_x5F_深">
</g>
<g id="配色" display="none">
</g>
<g id="Logo" display="none">
</g>
<g id="吉祥物設計" display="none">
</g>
</svg>
