<?xml version="1.0" encoding="utf-8"?>
<!-- Generator: Adobe Illustrator 16.0.0, SVG Export Plug-In . SVG Version: 6.00 Build 0)  -->
<!DOCTYPE svg PUBLIC "-//W3C//DTD SVG 1.1//EN" "http://www.w3.org/Graphics/SVG/1.1/DTD/svg11.dtd">
<svg version="1.1" xmlns="http://www.w3.org/2000/svg" xmlns:xlink="http://www.w3.org/1999/xlink" x="0px" y="0px" width="977.6px"
	 height="190.911px" viewBox="0 0 977.6 190.911" enable-background="new 0 0 977.6 190.911" xml:space="preserve">
<g id="圖層_1">
	<g>
		<defs>
			<rect id="SVGID_21_" x="0.6" y="0.911" width="977" height="215"/>
		</defs>
		<clipPath id="SVGID_2_">
			<use xlink:href="#SVGID_21_"  overflow="visible"/>
		</clipPath>
		
			<path clip-path="url(#SVGID_2_)" fill="none" stroke="#76E2E5" stroke-width="0.5" stroke-linecap="round" stroke-linejoin="round" stroke-miterlimit="10" d="
			M-37.92,70.385C-5.229,15.823,84.112-10.837,145.531,35.478c21.787,16.975,41.481,35.835,65.306,49.782
			c33.748,20.138,56.24,20.802,96.276,18.135c64.054-3.962,118.927-23.511,167.856-50.929
			C520.047,27.207,605.591-4.222,661.53,0.885C725.468,6.067,794.9,38.58,848.589,63.48c64.206,27.101,78.663,45.292,151.184,40.462
			c48.055-4.114,100.064-24.229,142.312-43.642"/>
		
			<path clip-path="url(#SVGID_2_)" fill="none" stroke="#76E2E5" stroke-width="0.5" stroke-linecap="round" stroke-linejoin="round" stroke-miterlimit="10" d="
			M-34.9,83.345C-2.21,28.782,84.131,2.12,145.551,48.434c21.787,16.975,41.481,35.835,65.307,49.782
			c33.748,20.137,59.239,20.807,99.276,18.139c64.054-3.961,118.924-25.796,167.853-53.214
			C523.063,37.88,608.591-4.218,664.53,0.889c63.938,5.182,133.055,49.678,187.077,74.154
			c48.615,22.027,78.661,44.403,151.183,39.574c48.055-4.114,100.064-24.229,142.312-43.644"/>
		
			<path clip-path="url(#SVGID_2_)" fill="none" stroke="#76E2E5" stroke-width="0.5" stroke-linecap="round" stroke-linejoin="round" stroke-miterlimit="10" d="
			M-31.88,97.067C0.811,42.504,84.152,15.837,145.572,62.152c21.787,16.975,41.481,35.835,65.306,49.781
			c33.748,20.138,62.24,20.809,102.276,18.144c64.054-3.962,118.919-28.845,167.849-56.264
			C526.079,48.555,611.591-4.214,667.53,0.893c63.938,5.183,127.185,56.591,187.095,85.712
			c44.852,21.803,78.66,43.515,151.181,38.685c48.055-4.115,100.064-24.229,142.312-43.642"/>
		
			<path clip-path="url(#SVGID_2_)" fill="none" stroke="#76E2E5" stroke-width="0.5" stroke-linecap="round" stroke-linejoin="round" stroke-miterlimit="10" d="
			M-28.859,110.788C3.832,56.227,84.173,29.555,145.592,75.87c21.787,16.975,41.481,35.836,65.307,49.782
			c33.748,20.138,65.239,20.814,105.276,18.147c64.054-3.962,118.915-31.893,167.844-59.312
			C529.095,59.228,614.591-4.21,670.53,0.896c63.938,5.183,130.698,65.234,187.112,97.271
			c40.322,22.899,91.125,41.795,151.18,37.796c48.055-4.115,100.064-24.229,142.312-43.643"/>
		
			<path clip-path="url(#SVGID_2_)" fill="none" stroke="#76E2E5" stroke-width="0.5" stroke-linecap="round" stroke-linejoin="round" stroke-miterlimit="10" d="
			M-25.838,124.511C6.853,69.948,84.194,43.273,145.613,89.588c21.787,16.976,41.481,35.835,65.307,49.781
			c33.748,20.138,68.239,20.818,108.275,18.152c64.054-3.962,118.91-34.942,167.839-62.361
			C532.111,69.901,617.591-4.206,673.53,0.901c63.938,5.182,137.953,78.994,187.13,108.83c24.31,14.75,91.124,40.907,151.178,36.906
			c48.055-4.113,100.064-24.229,142.312-43.642"/>
		
			<path clip-path="url(#SVGID_2_)" fill="none" stroke="#76E2E5" stroke-width="0.5" stroke-linecap="round" stroke-linejoin="round" stroke-miterlimit="10" d="
			M-22.816,138.994c32.691-54.562,107.032-81.24,168.452-34.926c21.787,16.976,41.481,35.835,65.307,49.782
			c33.748,20.137,71.239,20.822,111.275,18.157c64.054-3.963,118.904-38.754,167.833-66.172
			C535.127,80.575,620.591-4.201,676.53,0.905C740.468,6.088,814.876,91.1,863.677,121.293
			c32.067,19.84,91.123,40.017,151.177,36.017c48.055-4.114,100.064-24.229,142.312-43.643"/>
		
			<path clip-path="url(#SVGID_2_)" fill="none" stroke="#76E2E5" stroke-width="0.5" stroke-linecap="round" stroke-linejoin="round" stroke-miterlimit="10" d="
			M-19.793,154.241c32.691-54.561,104.032-81.245,165.452-34.93c21.787,16.975,41.481,35.835,65.307,49.781
			c33.748,20.138,74.239,20.826,114.275,18.161c64.054-3.962,118.897-43.325,167.827-70.744
			C538.144,91.248,623.591-4.197,679.53,0.909c63.938,5.183,139.316,100.88,187.165,131.947
			c19.808,12.861,80.086,39.863,151.176,35.128c48.055-4.114,100.064-24.23,142.312-43.643"/>
	</g>
</g>
<g id="網頁設計1" display="none">
</g>
<g id="網頁設計_x5F_深">
</g>
<g id="配色" display="none">
</g>
<g id="Logo" display="none">
</g>
<g id="吉祥物設計" display="none">
</g>
</svg>
