<?xml version="1.0" encoding="utf-8"?>
<!-- Generator: Adobe Illustrator 16.0.0, SVG Export Plug-In . SVG Version: 6.00 Build 0)  -->
<!DOCTYPE svg PUBLIC "-//W3C//DTD SVG 1.1//EN" "http://www.w3.org/Graphics/SVG/1.1/DTD/svg11.dtd">
<svg version="1.1" xmlns="http://www.w3.org/2000/svg" xmlns:xlink="http://www.w3.org/1999/xlink" x="0px" y="0px"
	 width="1043.403px" height="283.95px" viewBox="0 0 1043.403 283.95" enable-background="new 0 0 1043.403 283.95"
	 xml:space="preserve">
<g id="圖層_1">
	<g opacity="0.2">
		<g>
			<g>
				<path fill="#FFFFFF" d="M-26.413,260.213c43.377-40.429,99.634-69.4,159.158-74.842c29.691-2.715,59.781,1.133,87.777,11.377
					c13.824,5.059,26.462,12.448,39.689,18.798c12.999,6.24,26.42,11.582,40.093,16.15c51.33,17.147,107.644,21.598,160.419,8.458
					c26.964-6.713,52.464-17.879,75.577-33.319c22.398-14.963,42.243-33.806,62.414-51.559
					c39.803-35.031,83.595-71.519,138.595-76.398c63.386-5.624,123.125,26.408,180.762,47.62
					c25.438,9.362,51.318,16.64,78.353,19.265c30.56,2.967,61.351,2.846,92.021,2.847c0.729,0,5.459-1.165,3.386-1.165
					c-36.348-0.001-73.881,1.17-109.823-5.125c-31.38-5.497-61.271-17.297-90.725-29.063
					C837.96,91.955,781.222,69.385,722.763,80.039c-49.652,9.049-89.542,41.405-126.464,73.769
					c-20.141,17.655-39.845,36.184-61.805,51.601c-25.2,17.691-54.018,29.86-84.101,36.233
					c-58.39,12.37-120.264,1.317-174.449-22.108c-13.414-5.799-26.016-13.178-39.319-19.178
					c-13.179-5.943-27.078-10.201-41.234-13.067c-25.813-5.226-52.431-4.871-78.367-0.771
					C61.632,195.277,9.632,222.771-31.2,260.828C-30.991,260.633-27.405,261.138-26.413,260.213L-26.413,260.213z"/>
			</g>
		</g>
		<g>
			<g>
				<path fill="#FFFFFF" d="M-35.568,243.443c44.788-37.381,101.288-56.67,158.265-65.65c28.429-4.48,57.234-6.233,85.996-6.208
					c34.258,0.03,70.607,1.686,101.276,18.667c23.366,12.938,40.572,34.779,65.454,45.346c19.839,8.425,43.179,8.664,63.972,4.216
					c47.028-10.059,86.627-43.439,123.421-72.448c18.798-14.82,37.572-29.815,57.865-42.571
					c23.513-14.78,50.219-25.796,76.379-34.866c30.633-10.621,64.913-17.125,97.065-10.171c31.536,6.82,59.179,26,85.542,43.663
					c14.107,9.452,28.412,17.659,45.3,20.834c14.644,2.753,29.44,0.762,43.424-4.049c32.079-11.037,59.056-33.662,89.487-48.255
					c0.624-0.299-3.201-2.454-4.475-1.844c-25.121,12.046-47.699,28.577-72.579,41.04c-11.383,5.702-23.407,10.111-36.076,11.754
					c-15.377,1.994-30.432-1.738-44.104-8.72c-14.201-7.252-27.052-17.493-40.522-26.01c-12.256-7.749-24.892-14.884-38.168-20.739
					c-27.144-11.97-55.425-14.63-84.664-10.55c-31.186,4.352-60.718,16.452-89.181,29.414c-21.31,9.704-40.59,21.7-59.367,35.676
					c-39.434,29.349-76.221,63.866-121.212,84.773c-21.338,9.916-44.771,15.703-68.37,13.108
					c-14.333-1.576-27.004-6.655-38.867-14.771c-11.254-7.7-21.353-16.971-32.21-25.2c-23.394-17.73-51.46-25.648-80.342-28.665
					c-29.476-3.079-59.737-2.277-89.251-0.038C88.034,176.523,15.168,195.519-40.043,241.6
					C-40.826,242.253-36.562,244.272-35.568,243.443L-35.568,243.443z"/>
			</g>
		</g>
		<g>
			<g>
				<path fill="#FFFFFF" d="M-46.397,238.137c19.309-20.894,44.433-35.796,69.923-47.914c26.976-12.824,56.498-23.676,86.176-27.833
					c32.888-4.607,65.08,2.417,96.532,11.591c31.211,9.104,61.645,20.384,92.382,30.925c29.914,10.259,60.363,19.318,91.833,23.21
					c31.517,3.897,62.449,0.929,93.275-6.193c57.549-13.296,109.131-42.577,156.157-77.625
					c23.774-17.719,47.174-37.053,74.439-49.249c28.496-12.748,63.25-13.242,93.726-9.258c32.97,4.311,62.852,17.788,94.348,27.46
					c31.776,9.758,64.547,14.579,97.604,9.196c25.287-4.117,49.607-12.668,72.096-24.909c2.635-1.435-0.415-5.381-2.914-4.021
					c-29.292,15.943-62.106,25.69-95.528,26.62c-35.607,0.99-70.43-10.378-103.35-22.75c-29.223-10.983-59.756-17.97-91.065-18.233
					c-15.692-0.132-31.669,1.446-47.021,4.727c-13.101,2.799-25.458,8.87-37.016,15.471c-25.386,14.499-47.621,33.752-71.448,50.542
					c-24.461,17.237-50.112,33.064-77.316,45.6c-27.591,12.713-56.904,21.14-86.771,26.442c-32.787,5.821-66.058,3.519-98.455-3.514
					c-63.385-13.759-122.184-43.192-185.578-57.146c-30.962-6.815-62.176-6.594-92.819,1.796
					c-26.993,7.391-53.287,17.88-77.962,31.076c-20.142,10.771-39.497,23.911-55.065,40.757
					C-52.192,237.047-48.376,240.278-46.397,238.137L-46.397,238.137z"/>
			</g>
		</g>
		<g>
			<g>
				<path fill="#FFFFFF" d="M-20.186,268.754c36.974-43.1,88.469-71.589,144.469-80.898c27.977-4.651,56.518-6.618,84.864-6.493
					c14.228,0.063,28.48,0.821,42.589,2.695c14.333,1.904,26.93,6.485,39.9,12.795c6.827,3.321,13.613,6.702,20.635,9.6
					c8.212,3.39,16.623,5.151,25.385,6.439c16.741,2.461,33.759,2.591,50.643,2.394c33.821-0.394,67.443-0.459,100.874-6.238
					c32.197-5.564,63.489-15.471,93.789-27.567c14.977-5.979,30.289-12.099,44.406-19.931c11.891-6.597,22.686-15.053,33.069-23.778
					c21.001-17.646,40.413-37.478,64.172-51.53c12.788-7.563,26.865-12.603,41.549-14.854c17.918-2.748,36.199-0.164,53.664,4.058
					c31.012,7.496,60.697,20.003,90.828,30.31c29.536,10.103,59.688,18.935,90.704,23.036c32.906,4.351,66.859,2.277,97.403-11.53
					c0.647-0.292-1.492-4.808-2.242-4.469c-57.791,26.123-123.398,9.91-180.732-9.095c-29.978-9.937-59.275-21.937-89.691-30.53
					c-32.016-9.045-64.7-10.688-95.306,4.078c-24.656,11.895-44.65,31.722-65.021,49.549c-10.316,9.027-20.908,17.758-32.385,25.283
					c-12.905,8.461-27.347,14.34-41.505,20.341c-30.179,12.792-61.355,23.274-93.468,29.972c-33.107,6.905-66.09,7.54-99.746,8.208
					c-17.554,0.349-35.115,0.594-52.625-0.943c-8.857-0.777-18.117-1.856-26.666-4.397c-7.923-2.355-15.462-5.935-22.883-9.526
					c-13.3-6.436-26.085-12.741-40.777-15.222c-12.687-2.143-25.589-3.011-38.436-3.429c-55.964-1.821-114.075,4.161-164.93,28.86
					c-28.784,13.98-53.978,34.101-74.775,58.344C-23.237,265.229-20.298,268.885-20.186,268.754L-20.186,268.754z"/>
			</g>
		</g>
		<g>
			<g>
				<path fill="#FFFFFF" d="M-49.801,212.222c53.161-32.872,114.868-55.693,176.946-63.576
					c67.826-8.613,131.6,16.847,194.699,37.872c54.486,18.155,112.74,30.271,170.44,25.811c13.017-1.006,25.9-3.143,38.459-6.724
					c14.855-4.236,29.023-11.282,43.006-17.738c31.063-14.341,61.333-30.324,91.984-45.507
					c31.201-15.456,62.873-28.86,95.471-41.037c27.593-10.307,53.201-25.246,80.839-35.483
					c28.241-10.461,58.635-14.486,85.935,0.785c12.276,6.867,23.838,15.028,36.122,21.931c13.118,7.372,26.692,13.956,40.798,19.215
					c27.07,10.093,57.409,14.409,84.688,2.731c3.031-1.297,0.607-4.019-1.895-2.948c-28.793,12.325-60.291,5.378-88.164-6.059
					c-13.847-5.681-27.101-12.762-40.02-20.29C947.379,74.138,935.92,65.424,923.1,59.65c-24.954-11.238-52.917-6.949-77.967,1.477
					c-28.038,9.431-53.811,24.381-81.182,35.44c-15.265,6.167-30.885,11.332-46.067,17.749
					c-15.937,6.736-31.597,14.115-47.144,21.701c-31.176,15.213-61.837,31.461-93.218,46.257
					c-14.441,6.809-29.067,13.932-44.227,19.007c-13.514,4.523-27.837,6.655-42.004,7.75c-29.799,2.304-59.965-0.583-89.347-5.597
					c-61.792-10.545-118.634-37.737-179.444-51.937c-30.987-7.236-62.52-10.038-94.178-6.375
					c-30.833,3.567-61.154,11.581-90.403,21.816c-31.582,11.051-62.257,25.28-90.728,42.885
					C-55.603,211.551-51.799,213.458-49.801,212.222L-49.801,212.222z"/>
			</g>
		</g>
	</g>
</g>
<g id="網頁設計1" display="none">
</g>
<g id="網頁設計_x5F_深">
</g>
<g id="配色" display="none">
</g>
<g id="Logo" display="none">
</g>
<g id="吉祥物設計" display="none">
</g>
</svg>
