<?xml version="1.0" encoding="utf-8"?>
<!-- Generator: Adobe Illustrator 16.0.0, SVG Export Plug-In . SVG Version: 6.00 Build 0)  -->
<!DOCTYPE svg PUBLIC "-//W3C//DTD SVG 1.1//EN" "http://www.w3.org/Graphics/SVG/1.1/DTD/svg11.dtd">
<svg version="1.1" xmlns="http://www.w3.org/2000/svg" xmlns:xlink="http://www.w3.org/1999/xlink" x="0px" y="0px"
	 width="81.873px" height="76.019px" viewBox="0 0 81.873 76.019" enable-background="new 0 0 81.873 76.019" xml:space="preserve">
<g id="圖層_1">
	<g>
		<path fill="#FFFFFF" d="M43.373,9.131c2.215,0,5.5,0,5.5,4.953v18.092h5V14.084c0-3.484-0.498-6.039-2.035-8.042
			c-1.191-1.55-5.131-2.244-8.616-2.244c-3.188,0-6.891,0.612-8.608,2.329c-1.71,1.711-1.741,4.313-1.741,7.957v30.092
			c0,0,1.844-0.208,2.459-0.208c0.635,0,2.541,0.208,2.541,0.208V14.084C37.873,9.497,40.22,9.131,43.373,9.131z"/>
		<g>
			<path fill="#FFFFFF" d="M60.873,69.917v6.102c3-0.001,6.318-0.047,8.057-1.784c1.505-1.505,1.855-3.29,1.943-6.247
				c0.013-0.427,0-1.258,0-1.71c0-3.516,0-10.333,0-16.577c0-2.922,0-8.126,0-13.385c0-8.22,0-14.14,0-14.14
				s-1.841,0.208-2.458,0.208c-0.638,0.001-2.542-0.208-2.542-0.208v27.525c0,4.571-2.953,4.953-6,4.953c-2.105,0-6,0-6-4.953
				V34.176h-5v15.525c0,3.792,1.317,6.29,2.662,8.042c1.185,1.542,5.249,2.245,8.627,2.245c1.059,0,2.774-0.074,4.624-0.425
				l1.086-0.194v6.91c0,3.85-1.954,3.665-4.515,3.726L60.873,69.917z"/>
			<path fill="#FFFFFF" d="M63.91,49.702c0,0.383-0.032,0.714-0.074,1.03C63.881,50.428,63.91,50.093,63.91,49.702z"/>
		</g>
		<path fill="#FFFFFF" d="M75.873,4.176c0,0,0.719,13.5,0.719,18c0,5.75-0.719,23-0.719,23s2.375-0.125,3.167-0.125
			c0.708,0,2.833,0.125,2.833,0.125s-0.656-17.25-0.656-23c0-4.5,0.656-18,0.656-18s-2.261,0.188-3,0.188
			C78.112,4.364,75.873,4.176,75.873,4.176z"/>
		<path fill="#FFFFFF" d="M27.873,44.176c0,0-0.5-16.025-0.5-21.53c0-4.526,0.5-18.595,0.5-18.595s-2.323,0.123-3.104,0.123
			c-0.719,0-2.896-0.123-2.896-0.123s0.75,14.068,0.75,18.595c0,5.505-0.329,21.497-0.329,21.497s1.829-0.15,2.579-0.15
			S27.873,44.176,27.873,44.176z"/>
		<path fill="#273040" d="M51.469,35.86c-0.834,0-1.546-0.296-2.139-0.889c-0.592-0.591-0.889-1.305-0.889-2.139
			c0-0.856,0.296-1.574,0.889-2.156c0.593-0.581,1.305-0.872,2.139-0.872s1.547,0.291,2.139,0.872
			c0.593,0.582,0.889,1.3,0.889,2.156c0,0.834-0.296,1.547-0.889,2.139C53.016,35.563,52.303,35.86,51.469,35.86z"/>
		<g>
			<path fill="#FFFFFF" d="M16.11,6.267c-1.907-1.021-3.622-1.533-5.143-1.533c-1.521,0-2.822,0.545-3.9,1.635
				C5.989,7.458,5.45,8.774,5.45,10.318c0,1.09,0.321,2.253,0.963,3.49c0.642,1.237,2.09,3.217,4.343,5.937
				c2.252,2.721,3.975,5.081,5.167,7.081c1.192,2,1.788,4.295,1.788,6.885c0,3.227-0.971,5.846-2.913,7.857
				c-1.941,2.011-4.479,3.016-7.612,3.016c-1.726,0-3.827-0.151-6.325-1.173c0,0,0.217-2.034,0.216-2.712
				c-0.001-0.715-0.226-2.859-0.226-2.859c0.068,0.022,0.136,0.057,0.204,0.102c0.341,0.25,1.057,0.63,2.146,1.141
				c1.09,0.511,2.157,0.766,3.202,0.766c1.703,0,3.105-0.567,4.207-1.703c1.101-1.136,1.652-2.589,1.652-4.361
				c0-1.226-0.28-2.361-0.841-3.406c-0.561-1.044-1.578-2.465-3.051-4.263l-3.911-4.811c-1.519-1.866-2.642-3.571-3.369-5.116
				C0.363,14.646,0,12.805,0,10.669c0-3.158,0.92-5.726,2.759-7.703S6.982,0,9.912,0c2.043,0,4.144,0.329,6.233,1.352
				c0,0-0.205,1.725-0.205,2.24C15.94,4.26,16.11,6.267,16.11,6.267z"/>
		</g>
	</g>
</g>
<g id="網頁設計1" display="none">
</g>
<g id="網頁設計_x5F_深">
</g>
<g id="配色" display="none">
</g>
<g id="Logo" display="none">
</g>
<g id="吉祥物設計" display="none">
</g>
</svg>
